<svg width="27" height="31" viewBox="0 0 27 31" fill="none" xmlns="http://www.w3.org/2000/svg">
<path d="M8.18397 2.64593V28.1803H6.0561V2.64593H2.86431V28.1803H24.1429V2.64593H8.18397ZM1.80038 0.518066H25.2069C25.5175 0.518066 25.7725 0.617721 25.9718 0.817031C26.1711 1.01634 26.2708 1.27133 26.2708 1.582V29.2442C26.2708 29.5549 26.1711 29.8099 25.9718 30.0092C25.7725 30.2085 25.5175 30.3081 25.2069 30.3081H1.80038C1.48971 30.3081 1.23472 30.2085 1.03541 30.0092C0.836105 29.8099 0.73645 29.5549 0.73645 29.2442V1.582C0.73645 1.27133 0.836105 1.01634 1.03541 0.817031C1.23472 0.617721 1.48971 0.518066 1.80038 0.518066ZM12.4397 6.90165H18.8233C19.5326 6.90165 19.8872 7.25629 19.8872 7.96558C19.8872 8.67487 19.5326 9.02951 18.8233 9.02951H12.4397C11.7304 9.02951 11.3758 8.67487 11.3758 7.96558C11.3758 7.25629 11.7304 6.90165 12.4397 6.90165ZM12.4397 13.2852H18.8233C19.5326 13.2852 19.8872 13.6399 19.8872 14.3492C19.8872 15.0585 19.5326 15.4131 18.8233 15.4131H12.4397C11.7304 15.4131 11.3758 15.0585 11.3758 14.3492C11.3758 13.6399 11.7304 13.2852 12.4397 13.2852ZM12.4397 19.6688H18.8233C19.5326 19.6688 19.8872 20.0235 19.8872 20.7328C19.8872 21.442 19.5326 21.7967 18.8233 21.7967H12.4397C11.7304 21.7967 11.3758 21.442 11.3758 20.7328C11.3758 20.0235 11.7304 19.6688 12.4397 19.6688Z" fill="#b26500"/>
</svg>
